<svg width="1150" height="520" viewBox="0 0 1150 520" xmlns="http://www.w3.org/2000/svg" role="img">
<title>Graphe causal REVIEW — POPPINS CLINICAL</title>
<desc>Vrai dossier PECAN, avis CNEDiMTS favorable du 23 juin 2026. Claim et données construites uniquement depuis le protocole POPPINS-02, jamais depuis l'avis HAS. Deux gaps réels : population (exclusions protocolaires non reflétées dans l'indication) et design (déséquilibre de groupes à l'inclusion). Comparateur, endpoints, biais de mesure, dispositif et contexte tous OK. Structure causale DIRECT. Rattachement mis à jour le 2026-07-21 : type de revendication, population et contexte dépendent de la revendication (ce qui est affirmé), pas de l'intervention ; seul le dispositif reste rattaché à l'intervention (fait sur le dispositif lui-même).</desc>
<style>
  .node rect { stroke-width: 0.5; }
  .c-gray rect { fill: #f3f4f1; stroke: #9aa08e; }
  .c-teal rect { fill: #eaf4f1; stroke: #2f7d6f; }
  .c-coral rect { fill: #fbeaea; stroke: #a13b3b; }
  .c-gray { color: #4a5040; }
  .c-teal { color: #1f6e4c; }
  .c-coral { color: #a13b3b; }
  .arr { stroke: #8a927e; }
  .th { font: 700 13px -apple-system, "Segoe UI", sans-serif; fill: #16233a; }
  .ts { font: 12px -apple-system, "Segoe UI", sans-serif; fill: #2c3a52; }
</style>
<defs><marker id="arrow" viewBox="0 0 10 10" refX="8" refY="5" markerWidth="6" markerHeight="6" orient="auto-start-reverse"><path d="M2 1L8 5L2 9" fill="none" stroke="#8a927e" stroke-width="1.5" stroke-linecap="round" stroke-linejoin="round"/></marker></defs>

<rect width="1150" height="520" fill="#ffffff"/>

<!-- claim -> intervention, mechanism, population, context -->
<path d="M385,76 L385,110 L135,110 L135,140" class="arr" fill="none" marker-end="url(#arrow)"/>
<path d="M385,76 L385,110 L300,110 L300,140" class="arr" fill="none" marker-end="url(#arrow)"/>
<path d="M385,76 L385,110 L465,110 L465,140" class="arr" fill="none" marker-end="url(#arrow)"/>
<path d="M385,76 L385,110 L630,110 L630,140" class="arr" fill="none" marker-end="url(#arrow)"/>

<!-- intervention -> device -->
<path d="M135,196 L135,230" class="arr" fill="none" marker-end="url(#arrow)"/>

<!-- mechanism -> comparator, endpoint1, endpoint2, design, measurement_bias -->
<path d="M630,196 L630,214 L300,214 L300,230" class="arr" fill="none" marker-end="url(#arrow)"/>
<path d="M630,196 L630,214 L465,214 L465,230" class="arr" fill="none" marker-end="url(#arrow)"/>
<path d="M630,196 L630,230" class="arr" fill="none" marker-end="url(#arrow)"/>
<path d="M630,196 L630,214 L795,214 L795,230" class="arr" fill="none" marker-end="url(#arrow)"/>
<path d="M630,196 L630,214 L960,214 L960,230" class="arr" fill="none" marker-end="url(#arrow)"/>

<!-- comparator, endpoint1, endpoint2, design, measurement_bias -> conclusion -->
<path d="M300,286 L300,335 L560,335 L560,364" class="arr" fill="none" marker-end="url(#arrow)"/>
<path d="M465,286 L465,340 L600,340 L600,364" class="arr" fill="none" marker-end="url(#arrow)"/>
<path d="M630,286 L630,345 L640,345 L640,364" class="arr" fill="none" marker-end="url(#arrow)"/>
<path d="M795,286 L795,350 L680,350 L680,364" class="arr" fill="none" marker-end="url(#arrow)"/>
<path d="M960,286 L960,355 L720,355 L720,364" class="arr" fill="none" marker-end="url(#arrow)"/>

<g class="node c-gray">
<rect x="270" y="20" width="230" height="56" rx="8"/>
<text class="th" x="385" y="38" text-anchor="middle" dominant-baseline="central">Revendication</text>
<text class="ts" x="385" y="56" text-anchor="middle" dominant-baseline="central">Dyslexie, 7-11 ans</text>
</g>

<g class="node c-gray">
<rect x="60" y="140" width="150" height="56" rx="8"/>
<text class="th" x="135" y="158" text-anchor="middle" dominant-baseline="central">Intervention</text>
<text class="ts" x="135" y="176" text-anchor="middle" dominant-baseline="central">POPPINS CLINICAL v3.0.0</text>
</g>

<g class="node c-coral">
<rect x="225" y="140" width="150" height="56" rx="8"/>
<text class="th" x="300" y="158" text-anchor="middle" dominant-baseline="central">Population</text>
<text class="ts" x="300" y="176" text-anchor="middle" dominant-baseline="central">Exclusions non reflétées</text>
</g>

<g class="node c-teal">
<rect x="390" y="140" width="150" height="56" rx="8"/>
<text class="th" x="465" y="158" text-anchor="middle" dominant-baseline="central">Contexte</text>
<text class="ts" x="465" y="176" text-anchor="middle" dominant-baseline="central">Conforme — OK</text>
</g>

<g class="node c-gray">
<rect x="555" y="140" width="150" height="56" rx="8"/>
<text class="th" x="630" y="158" text-anchor="middle" dominant-baseline="central">Type de revendication</text>
<text class="ts" x="630" y="176" text-anchor="middle" dominant-baseline="central">Outcome clinique</text>
</g>

<g class="node c-teal">
<rect x="60" y="230" width="150" height="56" rx="8"/>
<text class="th" x="135" y="248" text-anchor="middle" dominant-baseline="central">Dispositif</text>
<text class="ts" x="135" y="266" text-anchor="middle" dominant-baseline="central">Conforme — OK</text>
</g>

<g class="node c-teal">
<rect x="225" y="230" width="150" height="56" rx="8"/>
<text class="th" x="300" y="248" text-anchor="middle" dominant-baseline="central">Comparateur</text>
<text class="ts" x="300" y="266" text-anchor="middle" dominant-baseline="central">Orthophonie — OK</text>
</g>

<g class="node c-teal">
<rect x="390" y="230" width="150" height="56" rx="8"/>
<text class="th" x="465" y="248" text-anchor="middle" dominant-baseline="central">Endpoint 1</text>
<text class="ts" x="465" y="266" text-anchor="middle" dominant-baseline="central">Précision — OK</text>
</g>

<g class="node c-teal">
<rect x="555" y="230" width="150" height="56" rx="8"/>
<text class="th" x="630" y="248" text-anchor="middle" dominant-baseline="central">Endpoint 2</text>
<text class="ts" x="630" y="266" text-anchor="middle" dominant-baseline="central">Vitesse — OK</text>
</g>

<g class="node c-coral">
<rect x="720" y="230" width="150" height="56" rx="8"/>
<text class="th" x="795" y="248" text-anchor="middle" dominant-baseline="central">Design</text>
<text class="ts" x="795" y="266" text-anchor="middle" dominant-baseline="central">Groupes déséquilibrés</text>
</g>

<g class="node c-teal">
<rect x="885" y="230" width="150" height="56" rx="8"/>
<text class="th" x="960" y="248" text-anchor="middle" dominant-baseline="central">Biais de mesure</text>
<text class="ts" x="960" y="266" text-anchor="middle" dominant-baseline="central">Évaluateur indép. — OK</text>
</g>

<g class="node c-teal">
<rect x="530" y="364" width="220" height="56" rx="8" stroke-width="1"/>
<text class="th" x="640" y="382" text-anchor="middle" dominant-baseline="central">Conclusion</text>
<text class="ts" x="640" y="400" text-anchor="middle" dominant-baseline="central">Inférence causale directe</text>
</g>

<circle cx="60" cy="462" r="6" fill="#9aa08e"/>
<text class="ts" x="74" y="462" dominant-baseline="central">Revendication / structure</text>
<circle cx="290" cy="462" r="6" fill="#2f7d6f"/>
<text class="ts" x="304" y="462" dominant-baseline="central">OK</text>
<circle cx="360" cy="462" r="6" fill="#a13b3b"/>
<text class="ts" x="374" y="462" dominant-baseline="central">Gap identifié</text>

<text class="ts" x="60" y="490" fill="#6b7280">Population, Contexte et Type de revendication dépendent de la Revendication (ce qui est affirmé) — pas de l'Intervention.</text>
<text class="ts" x="60" y="506" fill="#6b7280">Seul Dispositif dépend de l'Intervention (fait sur le dispositif lui-même, indépendant de ce qui est revendiqué).</text>
</svg>
